<svg width="110" height="29" viewBox="0 0 110 29" fill="none" xmlns="http://www.w3.org/2000/svg">
<path d="M20.4968 0.763227V28.1932C20.4968 28.3242 20.3908 28.4301 20.2603 28.4301H15.1468C15.016 28.4301 14.9102 28.3239 14.9102 28.1932V25.9486H14.8365C14.2444 26.813 13.4364 27.51 12.4129 28.0414C11.3892 28.5719 10.2731 28.8378 9.06449 28.8378C7.38692 28.8378 5.85799 28.3992 4.47686 27.5228C3.09517 26.6464 2.00991 25.4301 1.22081 23.8746C0.406936 22.2938 0 20.5101 0 18.5221C0 16.5342 0.418905 14.7382 1.25783 13.1326C2.04721 11.6019 3.13859 10.4045 4.53225 9.54013C5.92563 8.67573 7.44872 8.24325 9.10179 8.24325C10.2118 8.26805 11.272 8.50241 12.2835 8.94714C13.2945 9.39188 14.1454 10.0345 14.8365 10.8732H14.9102V0.763227C14.9102 0.632257 15.0163 0.526367 15.1468 0.526367H20.2603C20.3911 0.526367 20.4968 0.632536 20.4968 0.763227ZM14.1518 15.6879C13.7448 14.8243 13.1834 14.1452 12.4683 13.6517C11.753 13.1574 10.9636 12.9102 10.1005 12.9102C9.23734 12.9102 8.44741 13.1574 7.73235 13.6517C7.01701 14.1452 6.45615 14.8243 6.04921 15.6879C5.642 16.5531 5.43881 17.5033 5.43881 18.5411C5.43881 19.5788 5.642 20.529 6.04921 21.3926C6.45615 22.2578 7.01673 22.9358 7.73235 23.4304C8.44741 23.9248 9.23679 24.1705 10.1005 24.1705C10.9642 24.1705 11.7527 23.9248 12.4683 23.4304C13.1834 22.9361 13.7451 22.2578 14.1518 21.3926C14.5587 20.529 14.7622 19.578 14.7622 18.5411C14.7622 17.5042 14.5584 16.5531 14.1518 15.6879Z" fill="#27C58B"/>
<path d="M87.4646 28.4303H82.3512C82.2203 28.4303 82.1146 28.3241 82.1146 28.1934V17.6518C82.1146 16.0963 81.8429 14.936 81.3001 14.1702C80.7084 13.3306 79.7587 12.9101 78.4519 12.9101C77.1451 12.9101 76.1695 13.4165 75.529 14.4294C74.9367 15.2938 74.6408 16.5032 74.6408 18.0586V28.1932C74.6408 28.3241 74.5348 28.43 74.4042 28.43H69.2908C69.16 28.43 69.0542 28.3238 69.0542 28.1932V8.8877C69.0542 8.75673 69.1602 8.65084 69.2908 8.65084H74.4042C74.535 8.65084 74.6408 8.75701 74.6408 8.8877V10.8731H74.7516C75.2696 10.0586 76.047 9.41659 77.0827 8.94706C78.1184 8.47835 79.3025 8.24316 80.6341 8.24316C81.8927 8.26796 83.0142 8.51514 84.0012 8.98384C85.1354 9.55202 86.0116 10.4044 86.6282 11.54C87.3432 12.8731 87.7015 14.5528 87.7015 16.577V28.1932C87.7015 28.3241 87.5954 28.43 87.4649 28.43L87.4646 28.4303Z" fill="#27C58B"/>
<path d="M60.011 8.88725V28.1927C60.011 28.3237 60.117 28.4296 60.2476 28.4296H65.361C65.4918 28.4296 65.5976 28.3234 65.5976 28.1927V8.88725C65.5976 8.75628 65.4915 8.65039 65.361 8.65039H60.2476C60.1168 8.65039 60.011 8.75656 60.011 8.88725Z" fill="#27C58B"/>
<path d="M62.8046 6.41917C64.5752 6.41917 66.0105 4.98219 66.0105 3.20959C66.0105 1.43698 64.5752 0 62.8046 0C61.034 0 59.5986 1.43698 59.5986 3.20959C59.5986 4.98219 61.034 6.41917 62.8046 6.41917Z" fill="#27C58B"/>
<path d="M26.6541 6.41917C28.4247 6.41917 29.86 4.98219 29.86 3.20959C29.86 1.43698 28.4247 0 26.6541 0C24.8835 0 23.4481 1.43698 23.4481 3.20959C23.4481 4.98219 24.8835 6.41917 26.6541 6.41917Z" fill="#27C58B"/>
<path d="M23.8605 8.88725V28.1927C23.8605 28.3237 23.9665 28.4296 24.0971 28.4296H29.2105C29.3413 28.4296 29.4471 28.3234 29.4471 28.1927V8.88725C29.4471 8.75628 29.341 8.65039 29.2105 8.65039H24.0971C23.9662 8.65039 23.8605 8.75656 23.8605 8.88725Z" fill="#27C58B"/>
<path d="M44.6653 28.6709C37.8116 28.6709 31.7953 15.6581 31.7318 0.763524C31.7313 0.632276 31.8376 0.525828 31.9687 0.525828H36.9674C37.098 0.525828 37.2035 0.631719 37.204 0.762409C37.2658 14.8291 42.8235 23.0328 44.6725 23.1925C46.6401 23.1925 52.1259 15.9602 52.1259 8.65039C52.1259 6.90125 50.707 5.47842 48.9634 5.47842C47.4877 5.47842 45.9114 6.6538 45.7889 8.42746C45.7803 8.55258 45.6779 8.65011 45.5529 8.65011H40.5491C40.4164 8.65011 40.3087 8.54088 40.3125 8.40796C40.4411 3.74963 44.2722 0 48.9637 0C53.6552 0 57.5987 3.88032 57.5987 8.65039C57.5987 17.2074 51.2046 28.6709 44.6653 28.6709Z" fill="#27C58B"/>
<path d="M109.617 19.0755C109.617 17.0256 109.204 14.6885 108.378 13.1325C107.552 11.577 106.399 10.3735 104.919 9.52137C103.439 8.66895 101.749 8.24316 99.8498 8.24316C97.9507 8.24316 96.2428 8.66895 94.7261 9.52137C93.2094 10.3738 92.0184 11.5522 91.1558 13.0587C90.2676 14.6646 89.8234 16.4853 89.8234 18.522C89.8234 20.5588 90.2796 22.3803 91.1925 23.9854C92.0551 25.467 93.2459 26.6335 94.7628 27.4859C96.2795 28.3375 97.9755 28.7881 99.8498 28.838C101.971 28.8622 103.821 28.4793 105.4 27.6896C106.729 27.0362 107.86 26.1066 108.793 24.9002C108.879 24.7885 108.847 24.626 108.727 24.5533L105.311 22.4951C105.213 22.4364 105.087 22.4559 105.012 22.5414C104.334 23.3041 103.619 23.853 102.865 24.1894C102.064 24.5475 101.133 24.689 100.072 24.689C98.0826 24.689 95.516 23.0271 95.3365 20.5574H109.327C109.45 20.5574 109.553 20.4629 109.563 20.34C109.599 19.9184 109.617 19.4976 109.617 19.0757V19.0755ZM99.8498 12.4292C100.96 12.4292 101.919 12.7928 102.684 13.5954C103.337 14.2817 104.01 15.3749 104.06 16.903H95.3318C95.3974 15.5164 96.1128 14.3475 96.8835 13.6458C97.7611 12.8472 98.7403 12.4289 99.8498 12.4289V12.4292Z" fill="#27C58B"/>
</svg>
