<svg width="32" height="32" viewBox="0 0 32 32" fill="none" xmlns="http://www.w3.org/2000/svg">
<path d="M16 2C10.477 2 6 6.477 6 12V26C6 26.368 6.197 26.708 6.521 26.894C6.845 27.08 7.245 27.084 7.573 26.905L10 25.577L12.427 26.905C12.78 27.098 13.22 27.098 13.573 26.905L16 25.577L18.427 26.905C18.78 27.098 19.22 27.098 19.573 26.905L22 25.577L24.427 26.905C24.755 27.084 25.155 27.08 25.479 26.894C25.803 26.708 26 26.368 26 26V12C26 6.477 21.523 2 16 2ZM12 14C10.895 14 10 13.105 10 12C10 10.895 10.895 10 12 10C13.105 10 14 10.895 14 12C14 13.105 13.105 14 12 14ZM20 14C18.895 14 18 13.105 18 12C18 10.895 18.895 10 20 10C21.105 10 22 10.895 22 12C22 13.105 21.105 14 20 14Z" fill="white"/>
</svg>
