<svg width="32" height="32" viewBox="0 0 32 32" fill="none" xmlns="http://www.w3.org/2000/svg">
<path d="M16 2C13.243 2 11 4.243 11 7V16C11 18.757 13.243 21 16 21C18.757 21 21 18.757 21 16V7C21 4.243 18.757 2 16 2ZM19 16C19 17.654 17.654 19 16 19C14.346 19 13 17.654 13 16V7C13 5.346 14.346 4 16 4C17.654 4 19 5.346 19 7V16ZM25 16C25 20.411 21.646 24.046 17.333 24.862L17 25V27H20C20.552 27 21 27.448 21 28C21 28.552 20.552 29 20 29H12C11.448 29 11 28.552 11 28C11 27.448 11.448 27 12 27H15V25L14.667 24.862C10.354 24.046 7 20.411 7 16C7 15.448 7.448 15 8 15C8.552 15 9 15.448 9 16C9 19.86 12.14 23 16 23C19.86 23 23 19.86 23 16C23 15.448 23.448 15 24 15C24.552 15 25 15.448 25 16Z" fill="white"/>
</svg>
